<?xml version="1.0" encoding="UTF-8" standalone="no"?>
<!-- Created with Inkscape (http://www.inkscape.org/) -->

<svg
   width="3840"
   height="2160"
   viewBox="0 0 1016 571.50002"
   version="1.1"
   id="svg5"
   inkscape:version="1.1.2 (0a00cf5339, 2022-02-04)"
   sodipodi:docname="fewwis but nord.svg"
   inkscape:export-filename="/home/hoovy/fewwis nord/fewwis but nord.png"
   inkscape:export-xdpi="96"
   inkscape:export-ydpi="96"
   xmlns:inkscape="http://www.inkscape.org/namespaces/inkscape"
   xmlns:sodipodi="http://sodipodi.sourceforge.net/DTD/sodipodi-0.dtd"
   xmlns="http://www.w3.org/2000/svg"
   xmlns:svg="http://www.w3.org/2000/svg"
   xmlns:rdf="http://www.w3.org/1999/02/22-rdf-syntax-ns#"
   xmlns:cc="http://creativecommons.org/ns#">
  <sodipodi:namedview
     id="namedview7"
     pagecolor="#ffffff"
     bordercolor="#666666"
     borderopacity="1.0"
     inkscape:pageshadow="2"
     inkscape:pageopacity="0.0"
     inkscape:pagecheckerboard="0"
     inkscape:document-units="mm"
     showgrid="false"
     units="px"
     width="3840px"
     inkscape:snap-page="true"
     inkscape:snap-nodes="false"
     inkscape:snap-global="false"
     inkscape:zoom="0.25"
     inkscape:cx="2114"
     inkscape:cy="1372"
     inkscape:window-width="1366"
     inkscape:window-height="712"
     inkscape:window-x="0"
     inkscape:window-y="27"
     inkscape:window-maximized="1"
     inkscape:current-layer="layer1" />
  <defs
     id="defs2" />
  <g
     inkscape:label="Katman 1"
     inkscape:groupmode="layer"
     id="layer1">
    <rect
       style="fill:#2e3440;fill-rule:evenodd;stroke-width:0.264583;fill-opacity:1"
       id="rect31"
       width="1016"
       height="571.5"
       x="0"
       y="0" />
    <g
       id="g6272"
       transform="translate(-39.899711,-29.491786)">
      <g
         id="g6168"
         transform="translate(20.862779,26.464466)"
         style="fill:none;stroke:#434c5e;stroke-width:8.51958;stroke-miterlimit:4;stroke-dasharray:none;stroke-opacity:1">
        <g
           id="g6150"
           style="fill:none;stroke:#434c5e;stroke-width:8.51958;stroke-miterlimit:4;stroke-dasharray:none;stroke-opacity:1">
          <path
             d="m 635.72438,315.91982 -3.19405,-6.61617 c 0.0167,-0.25056 0.0294,-0.50218 0.0294,-0.75486 0,-7.49988 -7.79939,-14.41212 -20.92034,-19.94667 v 4.60189 c -1.27953,-0.50773 -2.6117,-1.00197 -3.99971,-1.47981 v -2.14524 c -18.75208,-6.76275 -46.668,-11.05376 -77.85126,-11.05376 -27.24494,0 -51.9983,3.27554 -70.32387,8.61324 v 7.47342 h -5.3e-4 v -9.04557 c -18.77483,5.96635 -30.41491,14.25495 -30.41491,23.41959 0,1.44463 0.29131,2.86756 0.85117,4.26323 l -1.91241,3.4044 c 0,0 -1.53247,1.98755 1.16575,6.18119 2.37966,3.69808 14.3002,18.17291 20.59173,25.75322 2.70245,3.88594 4.53522,6.27962 4.69529,6.04811 0.25268,-0.36671 -1.68037,-7.6626 -7.04717,-15.98692 -2.50455,-4.47013 -5.49487,-10.39363 -7.29033,-14.76878 5.01173,3.17236 34.45668,17.99934 94.51763,17.93902 61.38174,-0.0614 88.66584,-19.27516 91.6604,-21.89083 -1.04643,4.20396 -4.62175,12.70873 -7.47316,18.68964 -4.68471,8.55424 -6.38175,16.00147 -6.16373,16.36977 0.13864,0.2323 1.73699,-2.23335 4.09469,-6.22909 5.48508,-7.81658 15.8795,-22.73803 17.95648,-26.53903 2.35373,-4.30874 1.02896,-6.29999 1.02896,-6.29999"
             style="clip-rule:evenodd;fill:none;fill-opacity:1;fill-rule:nonzero;stroke:#434c5e;stroke-width:8.51958;stroke-linejoin:round;stroke-miterlimit:4;stroke-dasharray:none;stroke-opacity:1"
             id="path6140" />
          <g
             id="g6148"
             style="fill:none;fill-opacity:1;stroke:#434c5e;stroke-width:8.51958;stroke-miterlimit:4;stroke-dasharray:none;stroke-opacity:1">
            <path
               d="m 654.26903,315.88305 -20.99284,-15.46384 c -0.19711,-0.68792 -0.39422,-1.3761 -0.59795,-2.05872 l 6.89557,-9.98908 c 0.70379,-1.016 0.84561,-2.3368 0.38867,-3.49541 -0.45799,-1.15306 -1.45918,-1.97961 -2.64319,-2.18202 l -11.65913,-1.97882 c -0.45217,-0.92207 -0.92551,-1.82986 -1.4007,-2.73023 l 4.89876,-11.21516 c 0.5035,-1.14221 0.3982,-2.46989 -0.2704,-3.50679 -0.66596,-1.04166 -1.79547,-1.65021 -2.99985,-1.60285 l -11.83322,0.42995 c -0.61252,-0.79798 -1.23482,-1.58829 -1.86982,-2.36458 l 2.71939,-12.02055 c 0.2757,-1.22026 -0.0725,-2.49846 -0.9226,-3.38508 -0.84534,-0.88344 -2.0738,-1.24936 -3.24194,-0.96282 l -11.52578,2.83343 c -0.74612,-0.65961 -1.50495,-1.31049 -2.27224,-1.94866 l 0.4146,-12.34043 c 0.0444,-1.2491 -0.5379,-2.43628 -1.53776,-3.12976 -0.99933,-0.69744 -2.26748,-0.80221 -3.36047,-0.28416 l -10.75214,5.11201 c -0.86598,-0.49688 -1.73699,-0.98874 -2.61725,-1.46499 l -1.89998,-12.16052 c -0.19288,-1.2319 -0.98531,-2.27859 -2.09523,-2.75643 -1.10728,-0.48074 -2.3749,-0.32491 -3.34645,0.4064 l -9.58639,7.1927 c -0.94429,-0.31353 -1.89256,-0.61383 -2.85194,-0.90143 l -4.132,-11.53187 c -0.42016,-1.17554 -1.38906,-2.03888 -2.57069,-2.28177 -1.1774,-0.2405 -2.38866,0.16722 -3.20516,1.0795 l -8.06953,9.02732 c -0.97499,-0.11192 -1.95183,-0.21431 -2.93052,-0.29924 l -6.23068,-10.49761 c -0.63076,-1.06309 -1.74545,-1.71027 -2.94719,-1.71027 -1.1983,0 -2.3151,0.64718 -2.94164,1.71027 l -6.23226,10.49761 c -0.97922,0.0849 -1.96003,0.18732 -2.9337,0.29924 l -8.06953,-9.02732 c -0.81756,-0.91228 -2.03305,-1.32 -3.20727,-1.0795 -1.18005,0.24607 -2.15054,1.10623 -2.56831,2.28177 l -4.13518,11.53187 c -0.95805,0.2876 -1.90632,0.59002 -2.85221,0.90143 l -9.5832,-7.1927 c -0.97446,-0.73395 -2.24314,-0.88926 -3.35175,-0.4064 -1.10622,0.47784 -1.90182,1.52453 -2.09364,2.75643 l -1.9013,12.16052 c -0.87895,0.47625 -1.74995,0.96546 -2.61805,1.46499 l -10.75108,-5.11201 c -1.09194,-0.52017 -2.3667,-0.41328 -3.36127,0.28416 -0.99827,0.69348 -1.58221,1.88066 -1.53723,3.12976 l 0.41328,12.34043 c -0.7657,0.63817 -1.52294,1.28905 -2.27303,1.94866 l -11.52366,-2.83343 c -1.17026,-0.28416 -2.39766,0.0794 -3.24512,0.96282 -0.85222,0.88662 -1.1975,2.16482 -0.92366,3.38508 l 2.71383,12.02055 c -0.62918,0.7792 -1.25227,1.5666 -1.86319,2.36458 l -11.83323,-0.42995 c -1.19406,-0.0357 -2.33389,0.56119 -3.00117,1.60285 -0.6686,1.0369 -0.76994,2.36458 -0.27225,3.50679 l 4.9022,11.21516 c -0.47599,0.90037 -0.9488,1.80816 -1.40468,2.73023 l -11.65833,1.97882 c -1.18507,0.1995 -2.18334,1.02552 -2.64425,2.18202 -0.4572,1.15861 -0.30877,2.47941 0.39,3.49541 l 6.89663,9.98908 c -0.0532,0.17647 -0.1024,0.35427 -0.15531,0.53128 l -19.49874,20.71291 c 0,0 -2.98873,2.34182 1.36181,7.84595 3.83646,4.85537 23.53496,24.10248 33.93837,34.18549 4.39367,5.11916 7.4041,8.28913 7.71843,8.01502 0.49636,-0.43524 -2.10926,-9.7491 -10.76378,-20.67692 -6.67174,-9.8044 -15.33023,-24.8838 -13.29981,-26.62184 0,0 2.30955,-2.93185 6.94319,-5.04217 0.1696,0.13547 -0.17515,-0.13414 0,0 0,0 97.78868,45.10908 188.49684,0.76306 10.36214,-1.8587 16.63515,3.69226 16.63515,3.69226 2.16323,1.25412 -3.43853,16.75977 -8.04519,27.02375 -6.26507,11.65489 -7.1837,20.74915 -6.65268,21.06453 0.33549,0.20029 2.61488,-3.26839 5.86634,-8.78866 8.02323,-11.17944 23.18967,-32.49136 25.96568,-37.6682 3.14722,-5.86899 0,-7.5139 0,-7.5139"
               style="clip-rule:evenodd;fill:none;fill-opacity:1;fill-rule:nonzero;stroke:#434c5e;stroke-width:8.51958;stroke-linejoin:round;stroke-miterlimit:4;stroke-dasharray:none;stroke-opacity:1"
               id="path6142" />
            <path
               d="m 611.51395,310.09528 c 0,0 14.07028,-0.65246 32.55222,-19.43682 l 2.61884,-5.81528 c 0,0 -28.68533,-28.53478 15.90622,-48.23116 0,0 -3.90392,6.37963 -2.75854,31.02822 0,0 13.4448,-4.66963 17.38683,-26.44246 0,0 19.61091,25.85614 -21.29949,50.106 0,0 -19.19288,30.76813 -46.25049,27.82093 z"
               style="clip-rule:evenodd;fill:none;fill-opacity:1;fill-rule:nonzero;stroke:#434c5e;stroke-width:8.51958;stroke-linejoin:round;stroke-miterlimit:4;stroke-dasharray:none;stroke-opacity:1"
               id="path6144" />
            <path
               d="m 440.03749,305.9609 c -0.17648,0 -0.34951,0.013 -0.52202,0.0267 -6.94108,-1.57983 -26.45119,-6.66353 -31.60819,-14.91271 0,0 26.25381,-29.86405 -14.77962,-48.95294 l 4.77758,33.04064 c 0,0 -12.64946,-8.45318 -15.37917,-26.81447 0,0 -30.80359,22.35571 13.59535,43.78167 0,0 4.02696,15.13072 42.69026,27.20313 l 0.0283,-0.11509 c 0.3892,0.072 0.78766,0.11509 1.1975,0.11509 3.65337,0 6.61538,-2.99297 6.61538,-6.68628 0,-3.69253 -2.96201,-6.68576 -6.61538,-6.68576"
               style="clip-rule:evenodd;fill:none;fill-opacity:1;fill-rule:nonzero;stroke:#434c5e;stroke-width:8.51958;stroke-linejoin:round;stroke-miterlimit:4;stroke-dasharray:none;stroke-opacity:1"
               id="path6146" />
          </g>
        </g>
        <g
           id="g6166"
           style="fill:none;stroke:#434c5e;stroke-width:8.51958;stroke-miterlimit:4;stroke-dasharray:none;stroke-opacity:1">
          <g
             id="g6158"
             style="fill:none;fill-opacity:1;stroke:#434c5e;stroke-width:8.51958;stroke-miterlimit:4;stroke-dasharray:none;stroke-opacity:1">
            <path
               d="m 547.77609,292.37455 c 0,0 9.77239,-10.70054 19.54504,0 0,0 7.67873,14.26819 0,21.40135 0,0 -12.56427,9.98749 -19.54504,0 0,0 -8.37618,-7.84727 0,-21.40135"
               style="clip-rule:evenodd;fill:none;fill-opacity:1;fill-rule:nonzero;stroke:#434c5e;stroke-width:8.51958;stroke-linejoin:round;stroke-miterlimit:4;stroke-dasharray:none;stroke-opacity:1"
               id="path6152" />
            <path
               d="m 504.15979,289.45302 c 0,0 16.76268,-7.42209 21.33812,9.14453 0,0 4.79266,19.30929 -13.76627,20.39911 0,0 -23.6654,-4.55824 -7.57185,-29.54364"
               style="clip-rule:evenodd;fill:none;fill-opacity:1;fill-rule:nonzero;stroke:#434c5e;stroke-width:8.51958;stroke-linejoin:round;stroke-miterlimit:4;stroke-dasharray:none;stroke-opacity:1"
               id="path6154" />
            <path
               d="m 525.63576,325.7475 21.37727,-1.71555 c 0,0 -0.72442,3.44117 -3.5134,6.02429 0,0 -7.35277,8.06186 -15.78848,-0.67019 0,0 -1.38033,-1.48933 -2.07539,-3.63855"
               style="clip-rule:evenodd;fill:none;fill-opacity:1;fill-rule:nonzero;stroke:#434c5e;stroke-width:8.51958;stroke-linejoin:round;stroke-miterlimit:4;stroke-dasharray:none;stroke-opacity:1"
               id="path6156" />
          </g>
          <g
             id="g6164"
             style="fill:none;stroke:#434c5e;stroke-width:8.51958;stroke-miterlimit:4;stroke-dasharray:none;stroke-opacity:1">
            <path
               d="m 559.09073,296.34436 c 0,4.16613 -2.45586,7.54433 -5.48534,7.54433 -3.02895,0 -5.48481,-3.3782 -5.48481,-7.54433 0,-4.16719 2.45586,-7.54539 5.48481,-7.54539 3.02948,0 5.48534,3.3782 5.48534,7.54539"
               style="clip-rule:evenodd;fill:none;fill-opacity:1;fill-rule:nonzero;stroke:#434c5e;stroke-width:8.51958;stroke-linejoin:round;stroke-miterlimit:4;stroke-dasharray:none;stroke-opacity:1"
               id="path6160" />
            <path
               d="m 512.57883,296.61767 c 0,4.29657 -2.53259,7.78113 -5.65706,7.78113 -3.12314,0 -5.65652,-3.48456 -5.65652,-7.78113 0,-4.29789 2.53338,-7.78166 5.65652,-7.78166 3.12447,0 5.65706,3.48377 5.65706,7.78166"
               style="clip-rule:evenodd;fill:none;fill-opacity:1;fill-rule:nonzero;stroke:#434c5e;stroke-width:8.51958;stroke-linejoin:round;stroke-miterlimit:4;stroke-dasharray:none;stroke-opacity:1"
               id="path6162" />
          </g>
        </g>
      </g>
      <g
         id="g5706"
         transform="translate(20.862779,26.464466)"
         style="stroke-width:1.00013;stroke-miterlimit:4;stroke-dasharray:none">
        <g
           id="g5635"
           style="stroke-width:1.00013;stroke-miterlimit:4;stroke-dasharray:none">
          <path
             d="m 635.72438,315.91982 -3.19405,-6.61617 c 0.0167,-0.25056 0.0294,-0.50218 0.0294,-0.75486 0,-7.49988 -7.79939,-14.41212 -20.92034,-19.94667 v 4.60189 c -1.27953,-0.50773 -2.6117,-1.00197 -3.99971,-1.47981 v -2.14524 c -18.75208,-6.76275 -46.668,-11.05376 -77.85126,-11.05376 -27.24494,0 -51.9983,3.27554 -70.32387,8.61324 v 7.47342 h -5.3e-4 v -9.04557 c -18.77483,5.96635 -30.41491,14.25495 -30.41491,23.41959 0,1.44463 0.29131,2.86756 0.85117,4.26323 l -1.91241,3.4044 c 0,0 -1.53247,1.98755 1.16575,6.18119 2.37966,3.69808 14.3002,18.17291 20.59173,25.75322 2.70245,3.88594 4.53522,6.27962 4.69529,6.04811 0.25268,-0.36671 -1.68037,-7.6626 -7.04717,-15.98692 -2.50455,-4.47013 -5.49487,-10.39363 -7.29033,-14.76878 5.01173,3.17236 34.45668,17.99934 94.51763,17.93902 61.38174,-0.0614 88.66584,-19.27516 91.6604,-21.89083 -1.04643,4.20396 -4.62175,12.70873 -7.47316,18.68964 -4.68471,8.55424 -6.38175,16.00147 -6.16373,16.36977 0.13864,0.2323 1.73699,-2.23335 4.09469,-6.22909 5.48508,-7.81658 15.8795,-22.73803 17.95648,-26.53903 2.35373,-4.30874 1.02896,-6.29999 1.02896,-6.29999"
             style="clip-rule:evenodd;fill:#ad441f;fill-opacity:1;fill-rule:nonzero;stroke-width:1.00013;stroke-linejoin:round;stroke-miterlimit:4;stroke-dasharray:none"
             id="path1021" />
          <g
             id="g1134"
             style="fill:#b65638;fill-opacity:1;stroke-width:1.00013;stroke-miterlimit:4;stroke-dasharray:none">
            <path
               d="m 654.26903,315.88305 -20.99284,-15.46384 c -0.19711,-0.68792 -0.39422,-1.3761 -0.59795,-2.05872 l 6.89557,-9.98908 c 0.70379,-1.016 0.84561,-2.3368 0.38867,-3.49541 -0.45799,-1.15306 -1.45918,-1.97961 -2.64319,-2.18202 l -11.65913,-1.97882 c -0.45217,-0.92207 -0.92551,-1.82986 -1.4007,-2.73023 l 4.89876,-11.21516 c 0.5035,-1.14221 0.3982,-2.46989 -0.2704,-3.50679 -0.66596,-1.04166 -1.79547,-1.65021 -2.99985,-1.60285 l -11.83322,0.42995 c -0.61252,-0.79798 -1.23482,-1.58829 -1.86982,-2.36458 l 2.71939,-12.02055 c 0.2757,-1.22026 -0.0725,-2.49846 -0.9226,-3.38508 -0.84534,-0.88344 -2.0738,-1.24936 -3.24194,-0.96282 l -11.52578,2.83343 c -0.74612,-0.65961 -1.50495,-1.31049 -2.27224,-1.94866 l 0.4146,-12.34043 c 0.0444,-1.2491 -0.5379,-2.43628 -1.53776,-3.12976 -0.99933,-0.69744 -2.26748,-0.80221 -3.36047,-0.28416 l -10.75214,5.11201 c -0.86598,-0.49688 -1.73699,-0.98874 -2.61725,-1.46499 l -1.89998,-12.16052 c -0.19288,-1.2319 -0.98531,-2.27859 -2.09523,-2.75643 -1.10728,-0.48074 -2.3749,-0.32491 -3.34645,0.4064 l -9.58639,7.1927 c -0.94429,-0.31353 -1.89256,-0.61383 -2.85194,-0.90143 l -4.132,-11.53187 c -0.42016,-1.17554 -1.38906,-2.03888 -2.57069,-2.28177 -1.1774,-0.2405 -2.38866,0.16722 -3.20516,1.0795 l -8.06953,9.02732 c -0.97499,-0.11192 -1.95183,-0.21431 -2.93052,-0.29924 l -6.23068,-10.49761 c -0.63076,-1.06309 -1.74545,-1.71027 -2.94719,-1.71027 -1.1983,0 -2.3151,0.64718 -2.94164,1.71027 l -6.23226,10.49761 c -0.97922,0.0849 -1.96003,0.18732 -2.9337,0.29924 l -8.06953,-9.02732 c -0.81756,-0.91228 -2.03305,-1.32 -3.20727,-1.0795 -1.18005,0.24607 -2.15054,1.10623 -2.56831,2.28177 l -4.13518,11.53187 c -0.95805,0.2876 -1.90632,0.59002 -2.85221,0.90143 l -9.5832,-7.1927 c -0.97446,-0.73395 -2.24314,-0.88926 -3.35175,-0.4064 -1.10622,0.47784 -1.90182,1.52453 -2.09364,2.75643 l -1.9013,12.16052 c -0.87895,0.47625 -1.74995,0.96546 -2.61805,1.46499 l -10.75108,-5.11201 c -1.09194,-0.52017 -2.3667,-0.41328 -3.36127,0.28416 -0.99827,0.69348 -1.58221,1.88066 -1.53723,3.12976 l 0.41328,12.34043 c -0.7657,0.63817 -1.52294,1.28905 -2.27303,1.94866 l -11.52366,-2.83343 c -1.17026,-0.28416 -2.39766,0.0794 -3.24512,0.96282 -0.85222,0.88662 -1.1975,2.16482 -0.92366,3.38508 l 2.71383,12.02055 c -0.62918,0.7792 -1.25227,1.5666 -1.86319,2.36458 l -11.83323,-0.42995 c -1.19406,-0.0357 -2.33389,0.56119 -3.00117,1.60285 -0.6686,1.0369 -0.76994,2.36458 -0.27225,3.50679 l 4.9022,11.21516 c -0.47599,0.90037 -0.9488,1.80816 -1.40468,2.73023 l -11.65833,1.97882 c -1.18507,0.1995 -2.18334,1.02552 -2.64425,2.18202 -0.4572,1.15861 -0.30877,2.47941 0.39,3.49541 l 6.89663,9.98908 c -0.0532,0.17647 -0.1024,0.35427 -0.15531,0.53128 l -19.49874,20.71291 c 0,0 -2.98873,2.34182 1.36181,7.84595 3.83646,4.85537 23.53496,24.10248 33.93837,34.18549 4.39367,5.11916 7.4041,8.28913 7.71843,8.01502 0.49636,-0.43524 -2.10926,-9.7491 -10.76378,-20.67692 -6.67174,-9.8044 -15.33023,-24.8838 -13.29981,-26.62184 0,0 2.30955,-2.93185 6.94319,-5.04217 0.1696,0.13547 -0.17515,-0.13414 0,0 0,0 97.78868,45.10908 188.49684,0.76306 10.36214,-1.8587 16.63515,3.69226 16.63515,3.69226 2.16323,1.25412 -3.43853,16.75977 -8.04519,27.02375 -6.26507,11.65489 -7.1837,20.74915 -6.65268,21.06453 0.33549,0.20029 2.61488,-3.26839 5.86634,-8.78866 8.02323,-11.17944 23.18967,-32.49136 25.96568,-37.6682 3.14722,-5.86899 0,-7.5139 0,-7.5139"
               style="clip-rule:evenodd;fill:#b65638;fill-opacity:1;fill-rule:nonzero;stroke-width:1.00013;stroke-linejoin:round;stroke-miterlimit:4;stroke-dasharray:none"
               id="path1025" />
            <path
               d="m 611.51395,310.09528 c 0,0 14.07028,-0.65246 32.55222,-19.43682 l 2.61884,-5.81528 c 0,0 -28.68533,-28.53478 15.90622,-48.23116 0,0 -3.90392,6.37963 -2.75854,31.02822 0,0 13.4448,-4.66963 17.38683,-26.44246 0,0 19.61091,25.85614 -21.29949,50.106 0,0 -19.19288,30.76813 -46.25049,27.82093 z"
               style="clip-rule:evenodd;fill:#b65638;fill-opacity:1;fill-rule:nonzero;stroke-width:1.00013;stroke-linejoin:round;stroke-miterlimit:4;stroke-dasharray:none"
               id="path1029" />
            <path
               d="m 440.03749,305.9609 c -0.17648,0 -0.34951,0.013 -0.52202,0.0267 -6.94108,-1.57983 -26.45119,-6.66353 -31.60819,-14.91271 0,0 26.25381,-29.86405 -14.77962,-48.95294 l 4.77758,33.04064 c 0,0 -12.64946,-8.45318 -15.37917,-26.81447 0,0 -30.80359,22.35571 13.59535,43.78167 0,0 4.02696,15.13072 42.69026,27.20313 l 0.0283,-0.11509 c 0.3892,0.072 0.78766,0.11509 1.1975,0.11509 3.65337,0 6.61538,-2.99297 6.61538,-6.68628 0,-3.69253 -2.96201,-6.68576 -6.61538,-6.68576"
               style="clip-rule:evenodd;fill:#b65638;fill-opacity:1;fill-rule:nonzero;stroke-width:1.00013;stroke-linejoin:round;stroke-miterlimit:4;stroke-dasharray:none"
               id="path1053" />
          </g>
        </g>
        <g
           id="g5644"
           style="stroke-width:1.00013;stroke-miterlimit:4;stroke-dasharray:none">
          <g
             id="g5552"
             style="fill:#2e3440;fill-opacity:1;stroke-width:1.00013;stroke-miterlimit:4;stroke-dasharray:none">
            <path
               d="m 547.77609,292.37455 c 0,0 9.77239,-10.70054 19.54504,0 0,0 7.67873,14.26819 0,21.40135 0,0 -12.56427,9.98749 -19.54504,0 0,0 -8.37618,-7.84727 0,-21.40135"
               style="clip-rule:evenodd;fill:#2e3440;fill-opacity:1;fill-rule:nonzero;stroke-width:1.00013;stroke-linejoin:round;stroke-miterlimit:4;stroke-dasharray:none"
               id="path1033" />
            <path
               d="m 504.15979,289.45302 c 0,0 16.76268,-7.42209 21.33812,9.14453 0,0 4.79266,19.30929 -13.76627,20.39911 0,0 -23.6654,-4.55824 -7.57185,-29.54364"
               style="clip-rule:evenodd;fill:#2e3440;fill-opacity:1;fill-rule:nonzero;stroke-width:1.00013;stroke-linejoin:round;stroke-miterlimit:4;stroke-dasharray:none"
               id="path1041" />
            <path
               d="m 525.63576,325.7475 21.37727,-1.71555 c 0,0 -0.72442,3.44117 -3.5134,6.02429 0,0 -7.35277,8.06186 -15.78848,-0.67019 0,0 -1.38033,-1.48933 -2.07539,-3.63855"
               style="clip-rule:evenodd;fill:#2e3440;fill-opacity:1;fill-rule:nonzero;stroke-width:1.00013;stroke-linejoin:round;stroke-miterlimit:4;stroke-dasharray:none"
               id="path1049" />
          </g>
          <g
             id="g5556"
             style="stroke-width:1.00013;stroke-miterlimit:4;stroke-dasharray:none">
            <path
               d="m 559.09073,296.34436 c 0,4.16613 -2.45586,7.54433 -5.48534,7.54433 -3.02895,0 -5.48481,-3.3782 -5.48481,-7.54433 0,-4.16719 2.45586,-7.54539 5.48481,-7.54539 3.02948,0 5.48534,3.3782 5.48534,7.54539"
               style="clip-rule:evenodd;fill:#e5e9f0;fill-opacity:1;fill-rule:nonzero;stroke-width:1.00013;stroke-linejoin:round;stroke-miterlimit:4;stroke-dasharray:none"
               id="path1037" />
            <path
               d="m 512.57883,296.61767 c 0,4.29657 -2.53259,7.78113 -5.65706,7.78113 -3.12314,0 -5.65652,-3.48456 -5.65652,-7.78113 0,-4.29789 2.53338,-7.78166 5.65652,-7.78166 3.12447,0 5.65706,3.48377 5.65706,7.78166"
               style="clip-rule:evenodd;fill:#e5e9f0;fill-opacity:1;fill-rule:nonzero;stroke-width:1.00013;stroke-linejoin:round;stroke-miterlimit:4;stroke-dasharray:none"
               id="path1045" />
          </g>
        </g>
      </g>
    </g>
  </g>
  <metadata
     id="metadata38">
    <rdf:RDF>
      <cc:Work
         rdf:about="">
        <cc:license
           rdf:resource="http://creativecommons.org/licenses/by-sa/4.0/" />
      </cc:Work>
      <cc:License
         rdf:about="http://creativecommons.org/licenses/by-sa/4.0/">
        <cc:permits
           rdf:resource="http://creativecommons.org/ns#Reproduction" />
        <cc:permits
           rdf:resource="http://creativecommons.org/ns#Distribution" />
        <cc:requires
           rdf:resource="http://creativecommons.org/ns#Notice" />
        <cc:requires
           rdf:resource="http://creativecommons.org/ns#Attribution" />
        <cc:permits
           rdf:resource="http://creativecommons.org/ns#DerivativeWorks" />
        <cc:requires
           rdf:resource="http://creativecommons.org/ns#ShareAlike" />
      </cc:License>
    </rdf:RDF>
  </metadata>
</svg>
